<svg width="38" height="39" viewBox="0 0 38 39" fill="none" xmlns="http://www.w3.org/2000/svg">
<g clip-path="url(#clip0_519_4518)">
<path d="M24.3438 15.9631C24.3438 17.369 23.7808 18.7174 22.7786 19.7115C21.7765 20.7056 20.4173 21.2641 19 21.2641C17.5827 21.2641 16.2235 20.7056 15.2214 19.7115C14.2193 18.7174 13.6562 17.369 13.6562 15.9631C13.6562 14.5572 14.2193 13.2089 15.2214 12.2147C16.2235 11.2206 17.5827 10.6621 19 10.6621C20.4173 10.6621 21.7765 11.2206 22.7786 12.2147C23.7808 13.2089 24.3438 14.5572 24.3438 15.9631Z" fill="#A4A4A4"/>
<path fill-rule="evenodd" clip-rule="evenodd" d="M4.75 19.4973C4.75 15.7482 6.25134 12.1527 8.92373 9.50167C11.5961 6.85065 15.2207 5.36133 19 5.36133C22.7793 5.36133 26.4039 6.85065 29.0763 9.50167C31.7487 12.1527 33.25 15.7482 33.25 19.4973C33.25 23.2464 31.7487 26.842 29.0763 29.493C26.4039 32.144 22.7793 33.6333 19 33.6333C15.2207 33.6333 11.5961 32.144 8.92373 29.493C6.25134 26.842 4.75 23.2464 4.75 19.4973ZM19 7.12833C16.6519 7.12845 14.3516 7.78629 12.3638 9.02614C10.376 10.266 8.78147 12.0374 7.76381 14.1366C6.74615 16.2358 6.34669 18.5773 6.6114 20.8918C6.87612 23.2062 7.79425 25.3995 9.26013 27.2191C10.5248 25.1977 13.3089 23.0313 19 23.0313C24.6911 23.0313 27.4734 25.1959 28.7399 27.2191C30.2057 25.3995 31.1239 23.2062 31.3886 20.8918C31.6533 18.5773 31.2539 16.2358 30.2362 14.1366C29.2185 12.0374 27.624 10.266 25.6362 9.02614C23.6484 7.78629 21.3481 7.12845 19 7.12833Z" fill="#A4A4A4"/>
</g>
<defs>
<clipPath id="clip0_519_4518">
<rect width="28.5" height="28.272" fill="white" transform="translate(4.75 5.36133)"/>
</clipPath>
</defs>
</svg>
