<svg width="38" height="39" viewBox="0 0 38 39" fill="none" xmlns="http://www.w3.org/2000/svg">
<path d="M19.3123 35.903H19.0639C9.51522 35.7699 4.56826 28.3645 3.28557 24.4684C3.18873 24.1756 3.15112 23.8668 3.17489 23.5596C3.19866 23.2524 3.28335 22.9528 3.4241 22.6782C3.56485 22.4035 3.75888 22.1591 3.99507 21.959C4.23126 21.7589 4.50496 21.6071 4.80046 21.5121C5.09494 21.4159 5.40567 21.3781 5.71487 21.401C6.02407 21.424 6.32569 21.5072 6.60246 21.6458C6.87924 21.7845 7.12575 21.9759 7.32789 22.2091C7.53004 22.4423 7.68386 22.7128 7.78055 23.0051C7.89603 23.3475 10.6365 31.0941 19.131 31.2136C27.5858 31.3245 30.3486 23.3537 30.4628 23.0137C30.6596 22.4243 31.0834 21.9362 31.6418 21.6558C32.2001 21.3754 32.8476 21.3255 33.4429 21.5171C34.0376 21.7084 34.5314 22.126 34.8159 22.6782C35.1004 23.2304 35.1523 23.8721 34.9603 24.4622C33.6664 28.4384 28.7406 35.903 19.3123 35.903Z" fill="#FF6C00"/>
<path d="M27.467 8.10352H10.8555V12.7966H27.467V8.10352Z" fill="#393939"/>
<path d="M21.5258 2.21094H16.7949V18.6896H21.5258V2.21094Z" fill="#393939"/>
</svg>
